<svg viewBox="0 0 800 500" xmlns="http://www.w3.org/2000/svg">
  <defs>
    <linearGradient id="bg6" x1="0" y1="0" x2="0" y2="1">
      <stop offset="0%" stop-color="#556b52"/>
      <stop offset="100%" stop-color="#2e3d2c"/>
    </linearGradient>
  </defs>
  <rect width="800" height="500" fill="url(#bg6)"/>
  <rect x="0" y="380" width="800" height="120" fill="#222e20" opacity="0.6"/>
  <g fill="#e8b86d" opacity="0.9">
    <rect x="280" y="150" width="90" height="230" fill="#6b8065"/>
    <rect x="380" y="100" width="100" height="280" fill="#7c9375"/>
    <rect x="490" y="170" width="80" height="210" fill="#6b8065"/>
    <g fill="#f4ede1" opacity="0.85">
      <rect x="294" y="170" width="14" height="14"/><rect x="318" y="170" width="14" height="14"/><rect x="342" y="170" width="14" height="14"/>
      <rect x="294" y="200" width="14" height="14"/><rect x="318" y="200" width="14" height="14"/><rect x="342" y="200" width="14" height="14"/>
      <rect x="398" y="125" width="14" height="14"/><rect x="422" y="125" width="14" height="14"/><rect x="446" y="125" width="14" height="14"/><rect x="450" y="125" width="0" height="0"/>
      <rect x="398" y="155" width="14" height="14"/><rect x="422" y="155" width="14" height="14"/><rect x="446" y="155" width="14" height="14"/>
      <rect x="504" y="190" width="14" height="14"/><rect x="528" y="190" width="14" height="14"/><rect x="552" y="190" width="14" height="14"/>
    </g>
  </g>
  <rect x="0" y="0" width="800" height="500" fill="#000000" opacity="0.35"/>
  <text x="400" y="230" font-family="Arial, sans-serif" font-size="40" font-weight="800" fill="#ffffff" text-anchor="middle" letter-spacing="3">SOLD OUT</text>
  <text x="400" y="360" font-family="Arial, sans-serif" font-size="30" font-weight="700" fill="#ffffff" text-anchor="middle">Northview Pine Residences</text>
  <text x="400" y="30" font-family="Arial, sans-serif" font-size="16" letter-spacing="2" fill="#e8b86d" text-anchor="middle">SAMPLE PLACEHOLDER IMAGE — CONDOMINIUM</text>
</svg>
